<?xml version="1.0" standalone="no"?>
<!DOCTYPE svg PUBLIC "-//W3C//DTD SVG 20010904//EN"
 "http://www.w3.org/TR/2001/REC-SVG-20010904/DTD/svg10.dtd">
<svg version="1.0" xmlns="http://www.w3.org/2000/svg"
 width="1049.000000pt" height="1050.000000pt" viewBox="0 0 1049.000000 1050.000000"
 preserveAspectRatio="xMidYMid meet">

<g transform="translate(0.000000,1050.000000) scale(0.100000,-0.100000)"
fill="#000000" stroke="none">
<path d="M5800 10071 c-231 -70 -330 -115 -457 -210 -109 -82 -167 -149 -243
-282 -53 -93 -81 -128 -176 -222 l-113 -111 -1 -135 c-1 -75 -2 -176 -3 -226
-2 -78 5 -236 19 -400 19 -234 18 -242 -10 -267 -41 -35 -57 -111 -63 -288 -5
-173 5 -242 53 -370 22 -57 41 -87 80 -126 41 -40 53 -60 59 -95 22 -137 69
-349 84 -384 10 -22 43 -78 74 -124 31 -46 59 -99 63 -118 4 -19 7 -148 8
-286 l1 -250 -38 -21 c-21 -12 -55 -37 -75 -56 -20 -19 -66 -57 -101 -85 -35
-27 -116 -94 -180 -147 -132 -111 -97 -99 -421 -149 -113 -17 -225 -35 -250
-40 -164 -32 -222 -37 -331 -32 -77 4 -127 2 -151 -6 -79 -26 -347 -352 -400
-486 -9 -22 -19 -71 -23 -108 -6 -56 -17 -85 -64 -169 l-56 -101 -55 -12
c-120 -26 -124 -31 -138 -183 -10 -113 -18 -128 -133 -247 -64 -66 -85 -108
-119 -237 l-23 -87 -41 -6 c-36 -6 -56 -22 -161 -128 -100 -101 -128 -137
-165 -207 -50 -97 -278 -447 -306 -471 -11 -8 -51 -28 -91 -43 -116 -44 -132
-59 -157 -146 -13 -44 -35 -93 -53 -115 -17 -22 -34 -53 -37 -68 -4 -15 -11
-121 -16 -235 -13 -272 -32 -378 -88 -488 -36 -70 -38 -108 -8 -167 29 -59
134 -176 181 -199 63 -33 429 -150 635 -203 118 -31 274 -72 345 -90 72 -19
213 -50 315 -69 359 -66 422 -80 428 -95 3 -7 -5 -55 -16 -105 -12 -50 -40
-172 -62 -271 -43 -190 -100 -386 -130 -445 -10 -19 -20 -44 -24 -55 -6 -20 0
-20 2083 -24 l2089 -3 -15 68 c-8 38 -18 103 -23 144 -5 41 -20 154 -34 250
-14 96 -31 218 -36 270 l-11 95 34 95 c19 52 63 160 97 240 34 80 96 231 137
335 42 105 113 264 158 355 82 165 157 340 222 520 19 52 49 129 68 170 26 60
34 94 39 168 8 108 29 171 98 294 64 114 76 173 54 268 l-16 72 42 106 41 107
2 170 c1 122 6 191 19 245 46 199 57 265 62 385 12 239 -18 338 -136 449 -76
72 -133 104 -255 147 -71 24 -191 74 -410 171 -38 17 -128 65 -200 106 -71 41
-154 88 -182 104 -58 32 -83 61 -83 95 0 13 -29 56 -72 105 -39 46 -91 114
-115 151 -37 57 -52 72 -93 89 l-48 20 -16 72 c-8 39 -20 97 -26 128 -6 32
-16 60 -21 63 -31 20 34 303 125 544 40 105 50 121 76 121 50 0 199 97 271
176 47 53 124 171 154 235 28 62 50 238 43 343 -3 50 -10 73 -32 105 -19 27
-27 48 -23 63 11 43 109 315 125 345 7 12 12 30 12 41 0 10 20 80 45 155 25
76 45 144 45 153 0 12 6 15 23 10 71 -18 128 -28 133 -23 4 3 -11 28 -33 54
-54 64 -133 184 -133 200 0 7 4 13 9 13 23 0 288 196 290 215 1 5 -31 15 -71
22 -81 13 -208 72 -323 148 -73 49 -215 181 -215 201 0 6 28 23 61 38 34 15
59 29 56 32 -3 3 -40 14 -84 25 -113 28 -273 117 -273 152 0 11 216 134 264
151 13 4 16 10 10 16 -7 7 -42 7 -100 1 -121 -12 -206 -3 -492 55 -67 13 -200
33 -295 45 -94 11 -201 24 -237 29 -95 14 -113 12 -250 -29z m304 -9 c26 -7
20 -11 -59 -32 -178 -46 -379 -170 -474 -290 -28 -35 -41 -45 -45 -35 -3 8
-17 15 -31 15 -16 0 -25 6 -25 15 0 21 48 135 63 150 7 6 27 29 46 50 36 41
88 65 261 116 79 24 107 28 165 24 39 -3 83 -9 99 -13z m207 -22 c200 -20 203
-30 14 -49 -128 -13 -298 -48 -405 -82 -107 -35 -249 -107 -298 -152 -36 -33
-42 -36 -27 -14 18 28 109 103 181 149 75 48 179 96 264 121 139 42 130 41
271 27z m-756 -101 c-4 -6 -39 -31 -77 -55 -227 -146 -330 -301 -339 -509 -4
-95 -42 -111 -69 -28 -16 48 -1 104 63 228 73 140 188 251 359 346 56 31 73
36 63 18z m1350 -195 c36 -32 37 -34 10 -21 -40 20 -82 57 -64 57 8 -1 32 -17
54 -36z m-885 -26 c0 7 4 11 10 7 5 -3 7 -12 4 -20 -4 -8 -10 -12 -15 -9 -5 3
-6 -1 -3 -9 3 -10 -18 -29 -63 -59 -37 -25 -90 -65 -118 -89 -85 -75 -163
-139 -169 -139 -3 0 -6 7 -6 16 0 14 -2 15 -17 3 -9 -8 -3 7 15 33 18 26 32
51 32 56 0 22 99 95 250 184 47 28 66 34 72 25 6 -9 8 -9 8 1z m157 -41 c-176
-186 -176 -186 -282 -206 -33 -6 -82 -22 -108 -36 -57 -29 -58 -29 -51 -10 9
23 162 148 237 194 79 48 186 94 204 87 7 -3 13 -1 13 5 0 6 4 8 9 5 5 -3 -5
-21 -22 -39z m-604 18 c-3 -9 -8 -14 -10 -11 -3 3 -2 9 2 15 9 16 15 13 8 -4z
m190 -43 c9 -8 17 -20 17 -25 0 -5 -43 -54 -97 -108 -81 -83 -100 -98 -120
-93 -19 5 -33 -4 -73 -43 -28 -28 -50 -44 -50 -37 0 44 97 207 172 286 42 45
45 46 88 41 25 -3 53 -12 63 -21z m-476 -44 c-3 -8 -6 -5 -6 6 -1 11 2 17 5
13 3 -3 4 -12 1 -19z m4 -155 c-4 -134 -4 -137 -17 -88 -20 82 -14 225 10 225
8 0 10 -41 7 -137z m1937 -27 c8 -13 73 -70 117 -104 25 -19 26 -21 5 -11 -64
32 -260 208 -260 234 0 8 127 -103 138 -119z m-2201 -16 c-8 -31 20 -109 60
-170 48 -73 56 -166 8 -97 -9 12 -37 52 -64 89 -57 79 -69 113 -46 137 8 10
15 22 15 27 0 10 20 34 28 34 2 0 2 -9 -1 -20z m-22 -170 c18 -19 43 -53 56
-75 l24 -40 -43 35 c-98 80 -103 80 -27 1 l80 -83 -42 5 c-23 3 -75 21 -115
40 l-73 35 35 -29 c39 -33 32 -39 -10 -9 -15 11 -35 39 -44 61 l-17 42 52 53
52 53 20 -27 c11 -15 35 -43 52 -62z m2585 -133 c0 -2 -11 -14 -25 -27 -14
-13 -25 -21 -25 -17 0 3 10 15 22 27 21 19 28 24 28 17z m-2611 -68 c76 -11
89 -26 73 -86 -7 -26 -15 -49 -18 -52 -2 -3 -28 3 -58 12 -58 19 -106 51 -106
72 0 7 -7 18 -15 25 -8 7 -15 28 -15 46 l0 34 43 -22 c23 -12 66 -25 96 -29z
m259 -3 c14 -5 22 -3 22 5 0 34 164 -20 254 -84 23 -16 30 -17 37 -6 7 12 13
11 36 -3 15 -9 70 -33 121 -53 86 -34 95 -35 111 -21 10 9 27 16 39 16 11 0
24 5 28 12 5 7 3 8 -6 3 -8 -5 -11 -4 -6 3 3 6 22 9 42 7 25 -2 55 7 111 36
91 47 106 49 68 9 -35 -36 -31 -37 48 -6 71 28 129 43 205 50 56 5 57 5 41
-26 -10 -18 -9 -20 7 -14 31 13 144 28 159 22 8 -3 14 -16 12 -28 -2 -22 0
-23 72 -19 l73 3 -7 -31 c-5 -24 -3 -32 10 -37 9 -4 14 -13 11 -20 -3 -7 0
-16 5 -20 6 -3 8 -17 4 -31 -4 -16 -2 -22 4 -18 14 8 2 -88 -12 -97 -7 -4 -6
-17 3 -38 11 -26 11 -33 1 -40 -8 -5 -11 -16 -6 -29 4 -12 2 -28 -4 -35 -9
-11 -6 -23 10 -51 16 -27 19 -39 10 -48 -16 -16 -14 -35 10 -60 11 -12 29 -39
40 -59 l19 -38 -34 0 c-19 0 -37 -4 -40 -9 -3 -4 26 -39 63 -77 68 -68 96
-119 72 -133 -8 -5 -2 -19 19 -46 35 -44 34 -40 18 -65 -10 -16 -9 -25 5 -49
18 -31 23 -71 8 -71 -4 0 -8 -21 -8 -47 0 -27 -4 -60 -8 -75 -13 -49 12 -31
41 30 95 198 228 287 291 193 20 -29 23 -47 23 -127 0 -202 -21 -271 -130
-434 -86 -128 -238 -240 -327 -240 -23 0 -45 -6 -50 -12 -4 -7 -20 -49 -35
-92 -16 -43 -36 -91 -45 -106 -36 -54 -225 -207 -448 -360 -189 -130 -259
-167 -358 -185 -100 -19 -372 -20 -405 -2 -36 21 -386 526 -414 599 -10 27
-34 133 -53 236 -19 103 -41 219 -49 257 -24 121 -45 324 -51 505 -7 194 -3
218 72 440 19 58 37 119 40 135 3 17 9 35 13 40 4 6 8 33 8 60 -1 87 31 240
69 338 15 37 38 48 60 26 14 -14 33 -3 33 18 0 8 6 13 13 10 6 -2 22 -7 35
-11z m-339 -120 c31 -18 73 -37 94 -40 37 -7 38 -7 31 -44 -15 -79 -30 -117
-47 -116 -9 1 -14 -2 -12 -7 7 -11 -41 -36 -86 -44 -36 -7 -36 -6 -42 32 -12
72 -8 112 12 125 17 10 18 15 6 37 -16 33 -29 91 -20 91 4 0 33 -15 64 -34z
m2557 -48 c8 -16 10 -28 6 -28 -13 0 -62 77 -54 84 7 8 26 -14 48 -56z m-36
-151 c0 -30 -30 -131 -37 -124 -7 8 20 147 29 147 4 0 8 -10 8 -23z m-2420
-27 c0 -5 -5 -10 -11 -10 -5 0 -7 5 -4 10 3 6 8 10 11 10 2 0 4 -4 4 -10z
m-14 -67 c-4 -21 -9 -53 -11 -71 -4 -41 -2 -39 -63 -62 l-49 -19 -7 46 c-9 71
-7 113 7 117 41 12 95 24 111 25 16 1 18 -4 12 -36z m2381 -91 c-6 -23 -14
-42 -19 -42 -4 0 -2 15 3 33 6 17 13 38 15 46 11 33 11 2 1 -37z m-2432 -118
c-3 -19 -13 -38 -21 -41 -9 -3 -13 -12 -9 -21 3 -8 -3 -21 -12 -28 -15 -12
-15 -13 -2 -8 15 5 16 0 8 -42 -10 -54 -19 -68 -20 -33 -2 40 -8 111 -14 160
l-5 47 37 9 c43 10 48 6 38 -43z m2388 -30 c-4 -12 -8 -13 -14 -3 -9 15 -2 32
11 24 5 -3 6 -13 3 -21z m-33 -84 c0 -11 -4 -20 -9 -20 -5 0 -7 9 -4 20 3 11
7 20 9 20 2 0 4 -9 4 -20z m-55 -165 c-21 -58 -42 -105 -46 -105 -12 0 -12 17
0 24 5 3 19 43 31 88 21 79 37 114 48 104 2 -3 -12 -53 -33 -111z m-2376 -26
c10 -64 15 -198 11 -295 -1 -29 3 -61 9 -72 14 -27 15 -74 1 -52 -5 8 -10 11
-10 6 0 -25 -32 24 -46 70 -13 45 -14 66 -4 131 6 43 18 88 25 99 8 12 11 25
7 29 -4 4 -15 25 -25 48 -10 23 -15 31 -12 17 3 -14 0 -76 -7 -138 -15 -138
-3 -206 51 -302 30 -53 40 -82 50 -134 6 -33 11 -61 11 -63 0 -2 -7 -3 -15 -3
-17 0 -75 111 -100 190 -25 84 -32 342 -12 449 26 135 47 141 66 20z m1777
-1350 c-13 -52 -35 -149 -47 -217 -19 -98 -28 -129 -50 -156 -35 -42 -145
-100 -248 -131 -44 -13 -89 -29 -101 -35 -12 -6 -23 -10 -25 -8 -2 2 50 75
115 162 65 87 133 185 150 217 17 32 35 61 40 64 6 4 10 13 10 22 0 14 170
187 177 179 2 -1 -8 -45 -21 -97z m-248 -192 c-40 -58 -110 -158 -156 -222
-45 -63 -85 -121 -87 -128 -6 -15 -40 -32 -125 -62 -61 -22 -92 -34 -250 -105
-222 -100 -276 -119 -358 -127 l-83 -9 -34 38 c-19 20 -47 61 -62 90 l-27 53
-2 280 -1 280 30 -65 c20 -45 32 -92 38 -150 40 -378 50 -440 75 -461 11 -9
12 -6 4 17 -9 27 -52 328 -65 454 l-5 55 22 -30 c36 -47 107 -123 205 -219
l92 -88 65 -5 c60 -5 72 -3 129 26 63 32 254 171 343 250 45 40 210 166 243
186 11 6 13 4 8 -8 -3 -9 -2 -19 3 -22 6 -4 10 1 10 9 0 16 50 79 57 72 2 -2
-29 -51 -69 -109z m244 -299 c49 -240 51 -218 -23 -275 -142 -109 -289 -229
-369 -302 -47 -43 -125 -112 -175 -155 -49 -43 -142 -132 -207 -199 l-116
-120 -32 104 c-43 137 -150 427 -189 508 l-30 64 119 58 c130 63 373 161 575
233 287 102 336 127 381 196 15 22 29 38 32 35 3 -2 18 -69 34 -147z m-1462
-157 c0 -10 12 -40 27 -67 14 -27 32 -62 40 -79 8 -16 18 -38 24 -47 7 -14 1
-23 -33 -44 -68 -42 -116 -93 -168 -179 -45 -75 -181 -246 -228 -289 l-21 -18
11 38 c5 21 43 104 83 184 72 144 181 391 204 462 16 50 61 79 61 39z m1580
-6 c10 -12 10 -18 0 -30 -25 -30 -52 -12 -42 28 5 21 25 22 42 2z m-1680 -61
c-17 -44 -30 -63 -88 -132 -32 -37 -73 -86 -91 -110 -26 -33 -57 -55 -135 -93
-55 -28 -106 -55 -113 -60 -11 -10 -31 -21 -118 -67 -16 -9 -66 -38 -110 -66
-128 -79 -183 -107 -189 -97 -8 13 27 38 214 157 89 56 217 150 299 219 175
146 333 275 337 275 2 0 -1 -12 -6 -26z m1737 -11 c15 -25 99 -131 113 -143
17 -15 50 -70 50 -84 0 -9 -30 19 -67 62 -37 42 -84 96 -105 119 -23 26 -35
48 -32 58 9 22 21 18 41 -12z m-1330 -180 c15 -22 14 -22 -18 -13 -19 6 -61
10 -94 11 -59 1 -60 1 -30 15 46 21 124 14 142 -13z m6 -44 c18 -8 33 -30 51
-75 15 -36 26 -71 26 -79 0 -8 11 -38 23 -67 23 -52 26 -101 6 -124 -5 -6 -6
-14 -2 -17 3 -4 -2 -9 -11 -13 -9 -3 -13 -10 -10 -15 3 -5 -2 -9 -11 -9 -9 0
-28 -14 -42 -30 -13 -17 -28 -28 -32 -25 -5 2 -19 -7 -31 -20 -13 -14 -29 -25
-37 -25 -7 0 -13 -5 -13 -11 0 -6 -8 -8 -19 -4 -14 4 -23 0 -30 -13 -6 -11 -8
-22 -5 -24 3 -3 -2 -8 -11 -12 -13 -5 -15 -1 -10 17 5 16 4 18 -3 8 -6 -8 -17
-11 -28 -7 -13 5 -15 9 -6 18 35 35 -6 49 -149 50 l-85 0 -3 45 c-3 59 18 199
36 243 27 66 75 160 95 185 19 25 21 25 147 21 70 -3 139 -10 154 -17z m-888
-99 c-21 -34 -149 -74 -295 -93 -53 -7 -221 -41 -355 -72 -176 -41 -225 -49
-225 -37 0 5 22 29 48 54 44 42 53 45 117 52 57 6 275 41 585 96 68 12 132 12
125 0z m-835 -95 c0 -9 -171 -199 -186 -208 -9 -5 -16 -3 -20 7 -7 19 -211
-215 -269 -310 -40 -64 -40 -64 -43 -33 -7 66 119 265 279 442 40 44 86 85
103 93 30 13 136 20 136 9z m1267 -187 c-6 -128 -24 -221 -51 -260 -7 -10 -16
-15 -19 -11 -4 3 -7 -8 -7 -25 0 -18 -20 -70 -49 -124 -118 -222 -232 -480
-306 -691 -35 -99 -123 -451 -131 -524 -3 -35 -10 -61 -14 -58 -11 7 12 -308
25 -351 4 -12 1 -10 -9 6 -8 14 -15 33 -16 42 0 9 -4 18 -8 20 -5 2 -18 30
-29 63 -12 33 -33 92 -48 130 -16 44 -26 90 -26 125 0 48 33 291 47 345 3 11
14 49 24 85 10 36 23 90 28 120 6 31 25 94 43 140 28 72 34 81 39 60 5 -20 8
-13 13 29 3 29 11 59 17 66 16 19 24 109 13 142 -8 23 -5 40 17 91 14 34 30
59 35 55 4 -5 5 10 2 31 -3 21 -1 48 5 59 10 20 11 20 24 -4 13 -22 13 -21 8
18 -7 49 33 175 74 233 52 72 281 320 295 320 6 0 8 -48 4 -132z m662 -133
c17 -54 31 -105 31 -113 0 -7 -19 -42 -42 -77 -24 -35 -81 -126 -127 -202 -47
-76 -107 -174 -134 -218 -66 -105 -238 -347 -243 -342 -6 6 40 135 66 187 12
25 46 74 75 110 81 102 108 140 98 140 -5 0 -42 -43 -82 -95 -41 -52 -75 -95
-76 -95 -2 0 3 29 11 64 7 34 15 141 17 237 7 265 11 278 105 343 37 25 109
75 161 111 52 36 98 62 102 58 4 -5 21 -53 38 -108z m-567 -12 c23 -27 31 -62
18 -78 -6 -8 -9 -18 -7 -23 3 -4 8 -39 11 -77 8 -101 29 -215 39 -215 4 0 7
61 5 135 -1 74 1 137 5 141 4 4 18 -3 31 -15 15 -14 30 -20 37 -16 8 5 10 4 5
-4 -4 -6 -9 -107 -10 -224 -2 -237 -10 -273 -87 -432 -21 -43 -39 -88 -39
-100 0 -11 -9 -45 -21 -75 -11 -30 -26 -73 -34 -95 -18 -51 -93 -188 -216
-392 -53 -89 -107 -191 -119 -227 -20 -61 -24 -66 -58 -76 -20 -5 -43 -14 -51
-19 -20 -13 -22 -38 -4 -45 9 -4 13 -14 10 -26 -3 -11 -1 -20 3 -20 15 0 0
-74 -16 -87 -11 -8 -14 -20 -10 -37 3 -15 4 -26 2 -26 -2 0 -12 -3 -22 -7 -14
-5 -16 -2 -12 15 4 13 2 19 -6 16 -23 -9 -43 59 -50 169 -3 39 -10 65 -23 79
-16 18 -18 37 -17 162 0 126 4 154 33 261 108 405 172 574 368 976 72 146 136
282 142 302 11 33 52 77 71 77 4 0 14 -8 22 -17z m2818 -9 c30 -9 73 -29 95
-44 42 -30 144 -130 132 -130 -4 0 -40 24 -80 53 -86 65 -119 82 -180 98 -47
11 -59 23 -34 32 6 3 12 6 13 6 0 1 25 -6 54 -15z m-3830 -250 c-17 -49 -46
-138 -65 -199 l-34 -110 6 63 c3 35 15 116 27 180 20 112 22 117 55 139 19 13
36 22 38 20 2 -2 -10 -44 -27 -93z m4127 -96 c-3 -8 -6 -5 -6 6 -1 11 2 17 5
13 3 -3 4 -12 1 -19z m-5053 -70 c-34 -66 -114 -174 -114 -154 0 7 121 186
126 186 2 0 -3 -14 -12 -32z m5063 -105 c-2 -21 -4 -6 -4 32 0 39 2 55 4 38 2
-18 2 -50 0 -70z m-5208 -40 c-13 -16 -39 -42 -56 -59 -18 -18 -40 -47 -49
-65 l-15 -34 5 61 c3 33 8 68 11 77 8 18 69 46 104 46 l24 1 -24 -27z m-167
-374 c-10 -26 -63 -81 -96 -98 -20 -11 -29 -12 -38 -3 -17 17 96 132 122 125
13 -4 17 -10 12 -24z m-122 -324 c0 -3 -14 -30 -31 -60 -37 -66 -87 -109 -150
-130 -59 -20 -153 -85 -199 -138 -47 -54 -213 -281 -286 -389 -33 -48 -63 -87
-67 -87 -13 -1 45 98 148 254 51 77 106 167 121 200 20 41 62 95 134 171 112
118 145 144 181 144 21 0 70 13 114 31 24 9 35 11 35 4z m5336 -509 c-9 -24
-23 -50 -31 -56 -9 -7 -4 13 12 49 30 69 45 75 19 7z m-4972 -76 c80 -27 173
-95 198 -144 59 -116 173 -269 308 -411 l75 -80 -34 -3 c-22 -2 -40 3 -55 15
-11 11 -30 25 -41 33 -19 14 -19 14 -4 -5 35 -44 37 -43 -138 -43 -198 0 -246
5 -239 23 8 22 -52 102 -134 177 l-77 71 -7 111 c-3 61 -9 139 -12 172 -5 54
-4 64 15 83 27 27 70 27 145 1z m-1134 -285 c0 -2 -23 -16 -51 -31 -28 -14
-82 -57 -119 -95 -37 -38 -73 -69 -80 -69 -18 0 -5 78 18 110 24 32 148 83
215 89 9 0 17 -1 17 -4z m993 -108 c34 -15 78 -61 140 -147 41 -58 48 -85 19
-76 -55 18 -138 39 -222 56 -114 24 -160 39 -160 50 0 18 47 61 104 95 67 39
74 40 119 22z m3145 -14 c6 -15 12 -56 12 -92 1 -77 22 -292 43 -436 29 -195
38 -267 34 -271 -2 -2 -15 13 -29 33 -18 28 -28 63 -38 133 -7 52 -19 115 -26
140 -21 66 -34 197 -34 351 -1 167 9 203 38 142z m-4006 -18 c-2 -5 -49 -21
-105 -36 -105 -26 -234 -78 -276 -111 -39 -30 -71 -80 -78 -120 -8 -56 -23
-46 -23 15 0 66 24 114 75 149 90 63 421 146 407 103z m2827 -326 c41 -14 24
-29 -32 -29 -40 0 -82 -18 -133 -56 -17 -13 -36 -24 -42 -24 -15 0 -138 -199
-182 -295 -47 -102 -136 -335 -151 -398 -13 -55 -6 -304 10 -372 6 -22 7 -43
3 -47 -15 -15 -117 -28 -218 -28 -93 0 -105 2 -124 22 -22 24 -26 72 -11 141
5 23 15 71 22 106 8 41 15 58 19 47 7 -21 26 35 66 194 14 58 33 118 41 133
38 76 273 425 309 462 64 63 146 116 193 122 45 6 52 -6 30 -50 -5 -12 5 -5
22 17 52 61 110 79 178 55z m778 -34 c59 -8 133 -15 164 -15 50 0 57 -3 67
-25 9 -19 8 -33 -2 -62 -7 -21 -17 -58 -21 -82 -10 -59 -48 -116 -121 -181
-63 -56 -96 -102 -108 -153 -9 -39 -78 -67 -182 -76 -51 -4 -89 -12 -105 -24
-13 -9 -46 -33 -72 -52 -76 -54 -105 -59 -397 -62 -418 -5 -423 -5 -454 6 -25
10 -28 15 -22 45 9 46 96 267 142 357 20 41 59 109 87 152 39 62 59 83 96 101
41 21 180 65 271 87 52 12 532 0 657 -16z m-77 -635 c0 -16 -71 -30 -150 -30
-91 1 -77 15 26 29 97 12 124 12 124 1z m-4100 -40 c5 0 7 -7 3 -16 -5 -14 -9
-12 -20 10 -8 15 -10 32 -6 39 5 8 9 5 11 -10 2 -13 7 -23 12 -23z m2160 -59
c0 -11 -5 -23 -11 -27 -15 -9 -33 12 -26 30 9 23 37 20 37 -3z m835 -25 c105
-12 181 -24 198 -31 17 -7 16 -10 -11 -39 -44 -47 -109 -139 -134 -190 -12
-25 -30 -48 -40 -52 -11 -3 -18 -15 -18 -32 -1 -61 -52 -79 -85 -29 -27 43
-44 250 -29 360 l6 45 32 -13 c17 -7 54 -15 81 -19z m-824 -23 c-10 -17 -10
-16 -11 3 0 23 13 41 18 25 2 -6 -1 -18 -7 -28z m406 -45 c-3 -8 -6 -5 -6 6
-1 11 2 17 5 13 3 -3 4 -12 1 -19z m-10 -40 c-3 -8 -6 -5 -6 6 -1 11 2 17 5
13 3 -3 4 -12 1 -19z m-641 -544 c-4 -13 -9 -43 -12 -67 -5 -33 -10 -43 -25
-43 -10 0 -19 3 -19 6 0 5 12 61 25 117 4 15 10 20 21 16 11 -4 14 -13 10 -29z"/>
<path d="M5070 8321 c-14 -10 -45 -30 -68 -45 -62 -39 -46 -42 32 -5 l66 31
48 -28 c26 -15 74 -45 107 -67 l60 -39 -65 7 c-36 3 -83 8 -105 11 l-40 5 33
-15 c43 -20 41 -42 -5 -50 -21 -3 -58 -17 -83 -29 -55 -29 -61 -58 -14 -67 26
-6 30 -4 30 14 -1 14 6 21 19 22 11 1 30 4 42 8 19 6 23 2 33 -36 6 -24 13
-51 16 -60 7 -25 -15 -22 -58 7 -40 27 -58 31 -58 14 0 -5 21 -19 48 -31 26
-11 55 -27 65 -36 9 -8 17 -12 17 -7 0 4 11 0 24 -9 18 -11 39 -14 81 -10 46
4 61 11 90 40 21 21 35 44 35 59 0 26 14 33 26 14 3 -6 20 -19 38 -30 17 -10
24 -19 15 -19 -8 0 -34 -9 -57 -20 -22 -11 -47 -20 -53 -20 -7 0 -9 -3 -6 -7
9 -9 127 28 127 40 0 5 12 7 28 3 27 -5 27 -5 -3 8 -36 17 -60 42 -69 74 -9
27 10 29 58 7 36 -17 77 -76 58 -83 -20 -6 -13 -32 8 -32 36 0 34 28 -4 77
-40 52 -46 69 -17 53 33 -17 35 7 4 36 -29 28 -409 219 -453 228 -16 3 -34 -2
-50 -13z"/>
<path d="M6285 8204 c-66 -14 -191 -40 -277 -59 -86 -19 -171 -35 -188 -35
-27 0 -29 -2 -21 -19 21 -38 61 -54 138 -54 63 1 72 -1 62 -14 -7 -8 -26 -22
-43 -31 -24 -12 -27 -17 -13 -20 9 -2 17 -12 17 -23 0 -19 2 -19 43 6 23 15
62 36 86 47 43 20 45 20 58 2 7 -10 13 -33 13 -51 0 -84 45 -113 176 -113 62
0 76 4 116 30 40 26 49 29 76 19 21 -7 32 -18 34 -35 l3 -24 28 24 28 24 -31
23 c-18 13 -41 33 -53 45 -38 36 -107 77 -135 80 -33 3 -191 31 -247 44 -30 7
-16 8 55 4 57 -3 140 -17 209 -35 131 -34 150 -35 101 -9 -53 27 -143 47 -249
55 -151 11 -150 15 14 68 l146 46 43 -32 c24 -17 76 -60 115 -94 101 -89 112
-78 15 16 -92 90 -160 141 -183 140 -9 0 -70 -11 -136 -25z m-200 -124 c-3 -5
-11 -10 -16 -10 -6 0 -7 5 -4 10 3 6 11 10 16 10 6 0 7 -4 4 -10z m125 -94 c0
-3 -4 -8 -10 -11 -5 -3 -10 -1 -10 4 0 6 5 11 10 11 6 0 10 -2 10 -4z m255
-57 c16 -24 -75 -83 -96 -62 -7 7 1 17 25 31 20 12 36 26 36 32 0 13 27 13 35
-1z m-195 -29 c0 -5 -11 -10 -24 -10 -14 0 -28 5 -31 10 -4 6 7 10 24 10 17 0
31 -4 31 -10z"/>
<path d="M5602 7910 c0 -14 2 -19 5 -12 2 6 2 18 0 25 -3 6 -5 1 -5 -13z"/>
<path d="M7139 7883 c-20 -21 -51 -60 -69 -87 -18 -26 -47 -63 -64 -80 -27
-29 -31 -41 -34 -98 -2 -48 1 -68 12 -77 14 -12 14 -16 1 -42 -9 -16 -27 -36
-41 -46 -35 -22 -94 -101 -94 -125 0 -21 31 -35 85 -41 19 -2 38 -7 42 -12 5
-4 3 -6 -2 -2 -6 3 -16 -3 -23 -14 -10 -15 -10 -19 2 -19 30 0 49 15 77 58 30
47 29 75 -1 47 -22 -20 -78 -29 -125 -21 -55 11 -37 30 33 37 70 7 97 22 145
81 65 81 59 93 -10 20 -58 -62 -74 -74 -108 -78 -32 -4 -37 -3 -22 6 9 6 15
15 12 21 -4 5 10 9 29 9 19 0 38 5 41 10 3 6 -1 10 -9 10 -12 0 -13 5 -4 33 6
17 17 41 25 52 18 27 17 84 -3 92 -10 4 -14 13 -10 29 3 12 2 25 -4 29 -9 6
36 65 50 65 4 0 24 -11 44 -25 33 -22 36 -23 26 -5 -10 18 -7 22 24 35 19 8
36 20 39 27 4 10 6 10 6 1 1 -7 6 -13 11 -13 14 0 12 77 -3 120 -16 47 -36 48
-78 3z m81 -79 c0 -8 -4 -14 -10 -14 -5 0 -10 9 -10 21 0 11 5 17 10 14 6 -3
10 -13 10 -21z m-192 -218 c3 -12 -1 -17 -10 -14 -7 3 -15 13 -16 22 -3 12 1
17 10 14 7 -3 15 -13 16 -22z"/>
<path d="M6045 7900 c-4 -6 8 -10 30 -10 22 0 34 4 30 10 -3 6 -17 10 -30 10
-13 0 -27 -4 -30 -10z"/>
<path d="M5612 7778 c-1 -32 -16 -78 -43 -135 -47 -103 -38 -100 15 4 32 61
37 79 33 125 l-3 53 -2 -47z"/>
<path d="M5501 7419 c-1 -15 14 -49 33 -77 18 -27 43 -71 56 -96 12 -26 24
-45 27 -43 7 8 -29 90 -65 146 -18 30 -38 64 -42 75 -8 19 -9 19 -9 -5z"/>
<path d="M5475 7019 c-27 -5 -57 -6 -66 -4 -8 3 -24 -2 -35 -11 -18 -15 -18
-15 11 -9 17 3 80 8 140 12 75 5 100 9 80 14 -40 9 -70 8 -130 -2z"/>
<path d="M5680 7001 c8 -5 31 -12 50 -16 19 -4 81 -22 138 -41 112 -37 152
-44 84 -13 -63 28 -306 91 -272 70z"/>
<path d="M4964 8785 c-3 -8 -4 -20 -2 -27 3 -7 7 -1 10 15 6 29 1 36 -8 12z"/>
<path d="M4677 4880 c3 -25 7 -47 9 -49 8 -9 2 55 -6 74 -6 13 -7 5 -3 -25z"/>
<path d="M4691 4774 c0 -21 4 -48 9 -59 5 -12 6 1 3 35 -7 66 -13 79 -12 24z"/>
<path d="M4532 4455 c0 -16 2 -22 5 -12 2 9 2 23 0 30 -3 6 -5 -1 -5 -18z"/>
<path d="M4373 3675 c0 -22 2 -30 4 -17 2 12 2 30 0 40 -3 9 -5 -1 -4 -23z"/>
<path d="M5495 5174 c-22 -13 -35 -24 -30 -24 6 0 28 11 50 25 22 13 36 24 30
24 -5 -1 -28 -12 -50 -25z"/>
<path d="M5370 5120 c-8 -5 -10 -10 -5 -10 6 0 17 5 25 10 8 5 11 10 5 10 -5
0 -17 -5 -25 -10z"/>
<path d="M5479 4873 c-13 -16 -12 -17 4 -4 16 13 21 21 13 21 -2 0 -10 -8 -17
-17z"/>
<path d="M3004 3258 c41 -58 73 -110 115 -188 45 -85 113 -183 147 -210 16
-13 17 -13 9 0 -5 8 -26 37 -46 63 -21 26 -63 96 -94 155 -60 116 -119 202
-136 202 -7 0 -5 -9 5 -22z"/>
<path d="M3491 2879 c0 -15 8 -37 19 -50 17 -21 19 -21 13 -4 -3 11 -9 25 -13
30 -5 6 -10 19 -13 30 -4 16 -5 14 -6 -6z"/>
</g>
</svg>
